<svg width="231" height="100"  viewBox="-4 0 512 512.00034" xmlns="http://www.w3.org/2000/svg"><g fill="#d9d9d9"><path d="m95.457031 208.269531h-43.390625c-14.375 0-26.03125-11.652343-26.03125-26.03125v-104.136719h17.355469v104.136719c0 4.792969 3.882813 8.675781 8.675781 8.675781h43.390625zm0 0"/><path d="m433.898438 208.269531h-52.066407v-17.355469h52.066407c4.792968 0 8.679687-3.882812 8.679687-8.675781v-86.78125h17.355469v86.78125c0 14.378907-11.65625 26.03125-26.035156 26.03125zm0 0"/><path d="m459.933594 416.542969h-17.355469v-69.425781c0-4.792969-3.886719-8.675782-8.679687-8.675782h-52.066407v-17.355468h52.066407c14.378906 0 26.035156 11.65625 26.035156 26.03125zm0 0"/></g><path d="m182.238281 121.492188v43.390624h34.710938v-43.390624h52.066406v43.390624h34.714844v-43.390624c0-19.171876-15.542969-34.710938-34.714844-34.710938h-52.066406c-19.171875 0-34.710938 15.539062-34.710938 34.710938zm0 0" fill="#dbdbdb"/><path d="m104.136719 156.203125h277.695312c9.585938 0 17.355469 7.769531 17.355469 17.355469v173.558594c0 9.585937-7.769531 17.359374-17.355469 17.359374h-277.695312c-9.585938 0-17.355469-7.773437-17.355469-17.359374v-173.558594c0-9.585938 7.769531-17.355469 17.355469-17.355469zm0 0" fill="#dbdbdb"/><path d="m104.136719 156.203125h277.695312c9.585938 0 17.355469 7.769531 17.355469 17.355469v86.78125h-312.40625v-86.78125c0-9.585938 7.769531-17.355469 17.355469-17.355469zm0 0" fill="#eaeae8"/><path d="m295.050781 234.304688h-26.035156v-26.035157h-52.066406v26.035157h-26.035157v52.070312h26.035157v26.03125h52.066406v-26.03125h26.035156zm0 0" fill="#85bc94"/><path d="m69.421875 43.390625c0 19.167969-15.539063 34.710937-34.710937 34.710937-19.167969 0-34.710938-15.542968-34.710938-34.710937 0-19.171875 15.542969-34.710937 34.710938-34.710937 19.171874 0 34.710937 15.539062 34.710937 34.710937zm0 0" fill="#69b0bb"/><path d="m34.710938 43.390625h-17.355469c0-9.585937 7.769531-17.355469 17.355469-17.355469zm0 0" fill="#b3e4e8"/><path d="m459.933594 95.457031h-17.355469c-23.953125-.027343-43.363281-19.4375-43.390625-43.390625v-52.066406h34.710938v17.355469h-17.355469v34.710937c0 14.378906 11.65625 26.035156 26.035156 26.035156h17.355469c14.378906 0 26.03125-11.65625 26.03125-26.035156v-34.710937h-17.355469v-17.355469h34.714844v52.066406c-.03125 23.953125-19.441407 43.363282-43.390625 43.390625zm0 0" fill="#6fbbc6"/><path d="m407.863281 407.863281h86.78125v86.78125c0 9.585938-7.769531 17.355469-17.355469 17.355469h-52.070312c-9.582031 0-17.355469-7.769531-17.355469-17.355469zm0 0" fill="#b3e4e8"/><path d="m407.863281 442.578125h86.78125v52.066406c0 9.585938-7.769531 17.355469-17.355469 17.355469h-52.070312c-9.582031 0-17.355469-7.769531-17.355469-17.355469zm0 0" fill="#ea6b65"/><path d="m407.863281 468.609375h26.035157v17.355469h-26.035157zm0 0" fill="#dc4d41"/><path d="m130.167969 234.304688h17.359375v52.070312h-17.359375zm0 0" fill="#a8a8a8"/><path d="m338.441406 234.304688h17.355469v52.070312h-17.355469zm0 0" fill="#a8a8a8"/><path d="m78.101562 433.898438h-52.066406c-4.792968 0-8.679687-3.886719-8.679687-8.679688v-52.066406c0-4.792969 3.886719-8.675782 8.679687-8.675782 4.792969 0 8.675782 3.882813 8.675782 8.675782v43.390625h43.390624c4.792969 0 8.679688 3.886719 8.679688 8.675781 0 4.792969-3.886719 8.679688-8.679688 8.679688zm0 0" fill="#85bc94"/></svg>
